# xmcd
#
# Track frame offsets:
#	182
#	27982
#	40882
#	55417
#	76115
#	89885
#	103062
#	119527
#	134460
#	153505
#	166357
#	183250
#	199822
#	216952
#
# Disc length: 3106 seconds
#
# Revision: 1
# Processed by: cddbd v1.5.2PL0 Copyright (c) Steve Scherf et al.
# Submitted via: EZCDAudioConverter 2.1.5.1
#
DISCID=c90c200e
DTITLE=Vannelli Gino  - The very best of Gino Vannelli .flac
DYEAR=1988
DGENRE=Pop
TTITLE0=Powerful People
TTITLE1=Crazy Life
TTITLE2=Father and Son
TTITLE3=The Surest Things Can Change
TTITLE4=Felicia
TTITLE5=There's No Time
TTITLE6=Jo Jo
TTITLE7=People Gotta Move
TTITLE8=Love Of My Life
TTITLE9=Great Lake Canoe
TTITLE10=Keep On Walking
TTITLE11=Lady
TTITLE12=Poor Happy Jimmy
TTITLE13=I Just Wanna Stop
EXTD=
EXTT0=
EXTT1=
EXTT2=
EXTT3=
EXTT4=
EXTT5=
EXTT6=
EXTT7=
EXTT8=
EXTT9=
EXTT10=
EXTT11=
EXTT12=
EXTT13=
PLAYORDER=
